<?xml version="1.0" encoding="UTF-8" standalone="no"?>
<svg
   xmlns:dc="http://purl.org/dc/elements/1.1/"
   xmlns:cc="http://creativecommons.org/ns#"
   xmlns:rdf="http://www.w3.org/1999/02/22-rdf-syntax-ns#"
   xmlns:svg="http://www.w3.org/2000/svg"
   xmlns="http://www.w3.org/2000/svg"
   xmlns:sodipodi="http://sodipodi.sourceforge.net/DTD/sodipodi-0.dtd"
   xmlns:inkscape="http://www.inkscape.org/namespaces/inkscape"
   width="64.029167mm"
   height="95.779167mm"
   viewBox="0 0 64.029167 95.779167"
   version="1.1"
   id="svg1461"
   inkscape:version="1.0.2 (e86c870879, 2021-01-15)"
   sodipodi:docname="uno_RED_FIVE.svg">
  <defs
     id="defs1455" />
  <sodipodi:namedview
     id="base"
     pagecolor="#ffffff"
     bordercolor="#666666"
     borderopacity="1.0"
     inkscape:pageopacity="0.0"
     inkscape:pageshadow="2"
     inkscape:zoom="0.35"
     inkscape:cx="-621.85711"
     inkscape:cy="543.85714"
     inkscape:document-units="mm"
     inkscape:current-layer="layer1"
     inkscape:document-rotation="0"
     showgrid="false"
     inkscape:window-width="1464"
     inkscape:window-height="800"
     inkscape:window-x="0"
     inkscape:window-y="0"
     inkscape:window-maximized="1" />
  <metadata
     id="metadata1458">
    <rdf:RDF>
      <cc:Work
         rdf:about="">
        <dc:format>image/svg+xml</dc:format>
        <dc:type
           rdf:resource="http://purl.org/dc/dcmitype/StillImage" />
        <dc:title></dc:title>
      </cc:Work>
    </rdf:RDF>
  </metadata>
  <g
     inkscape:label="Layer 1"
     inkscape:groupmode="layer"
     id="layer1"
     transform="translate(-270.36636,-4.2711322)">
    <g
       transform="matrix(1.0583333,0,0,1.0583333,-46.869046,-347.21425)"
       id="g6595">
      <rect
         width="60"
         height="90"
         rx="10"
         ry="10"
         x="300"
         y="332.36218"
         id="rect2987-8-5-6"
         style="fill:#ffffff;fill-opacity:1;fill-rule:evenodd;stroke:#000000;stroke-width:0.5;stroke-miterlimit:4;stroke-dasharray:none" />
      <rect
         width="50"
         height="80"
         rx="5"
         ry="5"
         x="305"
         y="337.36218"
         id="rect3757-26-33-81"
         style="fill:#ff5555;fill-opacity:1;fill-rule:evenodd;stroke:none" />
      <path
         d="m 345,352.36217 c -22.09139,0 -40,17.90861 -40,40 0,5.52285 4.47715,10 10,10 22.09139,0 40,-17.90861 40,-40 0,-5.52285 -4.47715,-10 -10,-10 z"
         id="path3773-0-4-8-4-60-3-9"
         style="fill:#ffffff;fill-opacity:1;fill-rule:evenodd;stroke:none" />
      <path
         d="m 321,362.36217 v 10 5 h 10 c 2.77,0 5,2.23 5,5 0,2.77 -2.23,5 -5,5 -2.77,0 -5,-2.23 -5,-5 h -5 c 0,5.54 4.46,10 10,10 5.54,0 10,-4.46 10,-10 0,-5.54 -4.46,-10 -10,-10 h -5 v -5 h 5 9 v -5 h -9 -5 z"
         id="rect3163-6-0-0-2-7-1-2-19-4"
         style="fill:#ff5555;fill-opacity:1;stroke:none" />
      <path
         d="m 307.5,339.86217 v 5 2.5 h 5 c 1.385,0 2.5,1.115 2.5,2.5 0,1.385 -1.115,2.5 -2.5,2.5 -1.385,0 -2.5,-1.115 -2.5,-2.5 h -2.5 c 0,2.77 2.23,5 5,5 2.77,0 5,-2.23 5,-5 0,-2.77 -2.23,-5 -5,-5 H 310 v -2.5 h 2.5 4.5 v -2.5 h -4.5 -2.5 z"
         id="rect3163-6-0-0-2-7-1-2-19-2-4"
         style="fill:#ffffff;fill-opacity:1;stroke:none" />
      <path
         d="m 352.5,414.86217 v -5 -2.5 h -5 c -1.385,0 -2.5,-1.115 -2.5,-2.5 0,-1.385 1.115,-2.5 2.5,-2.5 1.385,0 2.5,1.115 2.5,2.5 h 2.5 c 0,-2.77 -2.23,-5 -5,-5 -2.77,0 -5,2.23 -5,5 0,2.77 2.23,5 5,5 h 2.5 v 2.5 h -2.5 -4.5 v 2.5 h 4.5 2.5 z"
         id="rect3163-6-0-0-2-7-1-2-19-2-4-6"
         style="fill:#ffffff;fill-opacity:1;stroke:none" />
    </g>
  </g>
</svg>
