<?xml version="1.0" encoding="UTF-8" standalone="no"?>
<svg
   xmlns:dc="http://purl.org/dc/elements/1.1/"
   xmlns:cc="http://creativecommons.org/ns#"
   xmlns:rdf="http://www.w3.org/1999/02/22-rdf-syntax-ns#"
   xmlns:svg="http://www.w3.org/2000/svg"
   xmlns="http://www.w3.org/2000/svg"
   xmlns:sodipodi="http://sodipodi.sourceforge.net/DTD/sodipodi-0.dtd"
   xmlns:inkscape="http://www.inkscape.org/namespaces/inkscape"
   width="64.029167mm"
   height="95.779167mm"
   viewBox="0 0 64.029167 95.779167"
   version="1.1"
   id="svg1067"
   inkscape:version="1.0.2 (e86c870879, 2021-01-15)"
   sodipodi:docname="uno_RED_ONE.svg">
  <defs
     id="defs1061" />
  <sodipodi:namedview
     id="base"
     pagecolor="#ffffff"
     bordercolor="#666666"
     borderopacity="1.0"
     inkscape:pageopacity="0.0"
     inkscape:pageshadow="2"
     inkscape:zoom="0.35"
     inkscape:cx="686.7143"
     inkscape:cy="492.42858"
     inkscape:document-units="mm"
     inkscape:current-layer="layer1"
     inkscape:document-rotation="0"
     showgrid="false"
     inkscape:window-width="1464"
     inkscape:window-height="800"
     inkscape:window-x="0"
     inkscape:window-y="0"
     inkscape:window-maximized="1" />
  <metadata
     id="metadata1064">
    <rdf:RDF>
      <cc:Work
         rdf:about="">
        <dc:format>image/svg+xml</dc:format>
        <dc:type
           rdf:resource="http://purl.org/dc/dcmitype/StillImage" />
        <dc:title></dc:title>
      </cc:Work>
    </rdf:RDF>
  </metadata>
  <g
     inkscape:label="Layer 1"
     inkscape:groupmode="layer"
     id="layer1"
     transform="translate(75.859825,42.597918)">
    <g
       transform="matrix(1.0583333,0,0,1.0583333,-139.09524,-394.0833)"
       id="g6563">
      <rect
         width="60"
         height="90"
         rx="10"
         ry="10"
         x="60"
         y="332.36218"
         id="rect2987"
         style="fill:#ffffff;fill-opacity:1;fill-rule:evenodd;stroke:#000000;stroke-width:0.5;stroke-miterlimit:4;stroke-dasharray:none" />
      <rect
         width="50"
         height="80"
         rx="5"
         ry="5"
         x="65"
         y="337.36218"
         id="rect3757"
         style="fill:#ff5555;fill-opacity:1;fill-rule:evenodd;stroke:none" />
      <path
         d="m 105,352.36217 c -22.09139,0 -40,17.90861 -40,40 0,5.52285 4.47715,10 10,10 22.09139,0 40,-17.90861 40,-40 0,-5.52285 -4.47715,-10 -10,-10 z"
         id="path3773-0-4-8-4"
         style="fill:#ffffff;fill-opacity:1;fill-rule:evenodd;stroke:none" />
      <path
         d="m 88,362.36217 -5,5 v 6 l 5,-5 v 24 h 5 v -30 z"
         id="rect3921"
         style="fill:#ff5555;fill-opacity:1;fill-rule:evenodd;stroke:none" />
      <path
         d="m 70,339.86217 -2.5,2.5 v 3 l 2.5,-2.5 v 12 h 2.5 v -15 z"
         id="rect3921-5"
         style="fill:#ffffff;fill-opacity:1;fill-rule:evenodd;stroke:none" />
      <path
         d="m 110,414.86217 2.5,-2.5 v -3 l -2.5,2.5 v -12 h -2.5 v 15 z"
         id="rect3921-5-5"
         style="fill:#ffffff;fill-opacity:1;fill-rule:evenodd;stroke:none" />
    </g>
  </g>
</svg>
