<?xml version="1.0" encoding="UTF-8" standalone="no"?>
<svg
   xmlns:dc="http://purl.org/dc/elements/1.1/"
   xmlns:cc="http://creativecommons.org/ns#"
   xmlns:rdf="http://www.w3.org/1999/02/22-rdf-syntax-ns#"
   xmlns:svg="http://www.w3.org/2000/svg"
   xmlns="http://www.w3.org/2000/svg"
   xmlns:sodipodi="http://sodipodi.sourceforge.net/DTD/sodipodi-0.dtd"
   xmlns:inkscape="http://www.inkscape.org/namespaces/inkscape"
   width="64.029167mm"
   height="95.779167mm"
   viewBox="0 0 64.029167 95.779167"
   version="1.1"
   id="svg2297"
   inkscape:version="1.0.2 (e86c870879, 2021-01-15)"
   sodipodi:docname="uno_WILD_WILD.svg">
  <defs
     id="defs2291" />
  <sodipodi:namedview
     id="base"
     pagecolor="#ffffff"
     bordercolor="#666666"
     borderopacity="1.0"
     inkscape:pageopacity="0.0"
     inkscape:pageshadow="2"
     inkscape:zoom="0.35"
     inkscape:cx="295.28573"
     inkscape:cy="200.99999"
     inkscape:document-units="mm"
     inkscape:current-layer="layer1"
     inkscape:document-rotation="0"
     showgrid="false"
     inkscape:window-width="1464"
     inkscape:window-height="800"
     inkscape:window-x="0"
     inkscape:window-y="0"
     inkscape:window-maximized="1" />
  <metadata
     id="metadata2294">
    <rdf:RDF>
      <cc:Work
         rdf:about="">
        <dc:format>image/svg+xml</dc:format>
        <dc:type
           rdf:resource="http://purl.org/dc/dcmitype/StillImage" />
        <dc:title></dc:title>
      </cc:Work>
    </rdf:RDF>
  </metadata>
  <g
     inkscape:label="Layer 1"
     inkscape:groupmode="layer"
     id="layer1"
     transform="translate(-27.70565,-94.985419)">
    <g
       transform="matrix(0.26458333,0,0,0.26458333,-464.15476,293.06249)"
       id="g9888-0-5">
      <rect
         width="240"
         height="360"
         rx="40"
         ry="40"
         x="1860"
         y="-747.63776"
         id="rect2987-8-5-81-2-4-9"
         style="fill:#ffffff;fill-opacity:1;fill-rule:evenodd;stroke:#000000;stroke-width:2;stroke-miterlimit:4;stroke-dasharray:none" />
      <rect
         width="200"
         height="320"
         rx="20"
         ry="20"
         x="1880"
         y="-727.63776"
         id="rect3757-26-33-5-9-0-0"
         style="fill:#000000;fill-opacity:1;fill-rule:evenodd;stroke:none" />
      <path
         d="m 2040,-667.63782 c -88.3656,0 -160,71.63444 -160,160 0,22.0914 17.9086,40 40,40 88.3656,0 160,-71.63444 160,-160 0,-22.0914 -17.9086,-40 -40,-40 z"
         id="path3773-0-4-8-4-60-3-86-5-7-5"
         style="fill:#ffffff;fill-opacity:1;fill-rule:evenodd;stroke:none" />
      <path
         d="m 1891.75,-567.63782 c -7.5127,18.54188 -11.75,38.76336 -11.75,60 0,22.0914 17.9086,40 40,40 l 60,-100 z"
         id="path3773-0-4-8-8-7-9-0-9-1"
         style="fill:#ffaa00;fill-opacity:1;fill-rule:evenodd;stroke:none" />
      <path
         d="m 1980,-567.63782 -60,100 c 67.1289,0 124.5024,-41.38924 148.25,-100 z"
         id="path3773-0-4-8-8-5-6-5-0-08-2"
         style="fill:#00aa00;fill-opacity:1;fill-rule:evenodd;stroke:none" />
      <path
         d="m 2040,-667.63782 c -67.1289,0 -124.5024,41.38924 -148.25,100 H 1980 Z"
         id="path3773-0-4-8-8-1-4-3-1-0"
         style="fill:#ff5555;fill-opacity:1;fill-rule:evenodd;stroke:none" />
      <path
         d="m 2040,-667.63782 -60,100 h 88.25 c 7.5127,-18.54188 11.75,-38.76336 11.75,-60 0,-22.0914 -17.9086,-40 -40,-40 z"
         id="path3773-0-4-8-8-5-8-3-9-4-9"
         style="fill:#5555ff;fill-opacity:1;fill-rule:evenodd;stroke:none" />
      <path
         d="m 1892.9375,-692.63797 c -1.8782,4.63547 -2.9375,9.69084 -2.9375,15 0,5.52285 4.4772,10 10,10 l 15,-25 z"
         id="path3773-0-4-8-8-7-9-5-7-0-8"
         style="fill:#ffaa00;fill-opacity:1;fill-rule:evenodd;stroke:none" />
      <path
         d="m 1915,-692.63797 -15,25 c 16.7822,0 31.1256,-10.34731 37.0625,-25 z"
         id="path3773-0-4-8-8-5-6-5-08-9-79-9"
         style="fill:#00aa00;fill-opacity:1;fill-rule:evenodd;stroke:none" />
      <path
         d="m 1930,-717.63797 c -16.7822,0 -31.1256,10.34731 -37.0625,25 H 1915 Z"
         id="path3773-0-4-8-8-1-4-39-9-5-1"
         style="fill:#ff5555;fill-opacity:1;fill-rule:evenodd;stroke:none" />
      <path
         d="m 1930,-717.63797 -15,25 h 22.0625 c 1.8782,-4.63547 2.9375,-9.69084 2.9375,-15 0,-5.52285 -4.4772,-10 -10,-10 z"
         id="path3773-0-4-8-8-5-8-3-3-7-38-7"
         style="fill:#5555ff;fill-opacity:1;fill-rule:evenodd;stroke:none" />
      <path
         d="m 2022.9375,-442.63797 c -1.8782,4.63547 -2.9375,9.69084 -2.9375,15 0,5.52285 4.4772,10 10,10 l 15,-25 z"
         id="path3773-0-4-8-8-7-9-5-3-2-3"
         style="fill:#ffaa00;fill-opacity:1;fill-rule:evenodd;stroke:none" />
      <path
         d="m 2045,-442.63797 -15,25 c 16.7822,0 31.1256,-10.34731 37.0625,-25 z"
         id="path3773-0-4-8-8-5-6-5-08-5-3-3"
         style="fill:#00aa00;fill-opacity:1;fill-rule:evenodd;stroke:none" />
      <path
         d="m 2060,-467.63797 c -16.7822,0 -31.1256,10.34731 -37.0625,25 H 2045 Z"
         id="path3773-0-4-8-8-1-4-39-7-2-0"
         style="fill:#ff5555;fill-opacity:1;fill-rule:evenodd;stroke:none" />
      <path
         d="m 2060,-467.63797 -15,25 h 22.0625 c 1.8782,-4.63547 2.9375,-9.69084 2.9375,-15 0,-5.52285 -4.4772,-10 -10,-10 z"
         id="path3773-0-4-8-8-5-8-3-3-6-1-7"
         style="fill:#5555ff;fill-opacity:1;fill-rule:evenodd;stroke:none" />
      <path
         d="m 2040,-667.63787 c -67.1289,0 -124.5024,41.38924 -148.25,100 -7.5127,18.54188 -11.75,38.76336 -11.75,60 0,22.0914 17.9086,40 40,40 67.1289,0 124.5024,-41.38924 148.25,-100 7.5127,-18.54188 11.75,-38.76336 11.75,-60 0,-22.0914 -17.9086,-40 -40,-40 z"
         id="path3773-0-4-8-8-7-9-0-03-8-0-6"
         style="fill:none;stroke:#ffffff;stroke-width:4;stroke-miterlimit:4;stroke-dasharray:none" />
      <path
         d="m 1930,-717.63787 c -16.7822,0 -31.1256,10.34731 -37.0625,25 -1.8782,4.63547 -2.9375,9.69084 -2.9375,15 0,5.52285 4.4772,10 10,10 16.7822,0 31.1256,-10.34731 37.0625,-25 1.8782,-4.63547 2.9375,-9.69084 2.9375,-15 0,-5.52285 -4.4772,-10 -10,-10 z"
         id="path3773-0-4-8-8-7-9-0-03-8-9-4-6"
         style="fill:none;stroke:#ffffff;stroke-width:4;stroke-miterlimit:4;stroke-dasharray:none" />
      <path
         d="m 2060,-467.63787 c -16.7822,0 -31.1256,10.34731 -37.0625,25 -1.8782,4.63547 -2.9375,9.69084 -2.9375,15 0,5.52285 4.4772,10 10,10 16.7822,0 31.1256,-10.34731 37.0625,-25 1.8782,-4.63547 2.9375,-9.69084 2.9375,-15 0,-5.52285 -4.4772,-10 -10,-10 z"
         id="path3773-0-4-8-8-7-9-0-03-8-9-5-07-0"
         style="fill:none;stroke:#ffffff;stroke-width:4;stroke-miterlimit:4;stroke-dasharray:none" />
    </g>
  </g>
</svg>
